PathFileType	4	(X/Y/Z)	C:\Users\Basilio\Documents\Thesis Gigler\squatting_fais\c3dfiles\076\SLS_front_pre2\markers_experimental.trc
DataRate	CameraRate	NumFrames	NumMarkers	Units	OrigDataRate	OrigDataStartFrame	OrigNumFrames
200.000000	200.000000	4	61	mm	200.000000	1196	1595
Frame#	Time	FHD			LBHD			RBHD			C7			T10			CLAV			LSHO			LUUPA			LMUPA			LDUPA			LLEP			LMEP			LRAD			LUL			LRFIN			RSHO			RUPA1			RMUPA			RDUPA			RLEP			RMEP			RRAD			RUL			RUFIN			LASI			RASI			USACR			LSACR			RSACR			LTHI1			LTHI2			LTHI3			LTHI4			LLFC			LMFC			LTIB1			LTIB2			LTIB3			LTIB4			LLMAL			LMMAL			LHEE			LMT1			LMT2			LMT5			RTHI			RTHI2			RTHI3			RTHI4			RLFC			RMFC			RTIB1			RTIB2			RTIB3			RTIB4			RLMAL			RMMAL			RHEE			RMT1			RMT2			RMT5			
		X1	Y1	Z1	X2	Y2	Z2	X3	Y3	Z3	X4	Y4	Z4	X5	Y5	Z5	X6	Y6	Z6	X7	Y7	Z7	X8	Y8	Z8	X9	Y9	Z9	X10	Y10	Z10	X11	Y11	Z11	X12	Y12	Z12	X13	Y13	Z13	X14	Y14	Z14	X15	Y15	Z15	X16	Y16	Z16	X17	Y17	Z17	X18	Y18	Z18	X19	Y19	Z19	X20	Y20	Z20	X21	Y21	Z21	X22	Y22	Z22	X23	Y23	Z23	X24	Y24	Z24	X25	Y25	Z25	X26	Y26	Z26	X27	Y27	Z27	X28	Y28	Z28	X29	Y29	Z29	X30	Y30	Z30	X31	Y31	Z31	X32	Y32	Z32	X33	Y33	Z33	X34	Y34	Z34	X35	Y35	Z35	X36	Y36	Z36	X37	Y37	Z37	X38	Y38	Z38	X39	Y39	Z39	X40	Y40	Z40	X41	Y41	Z41	X42	Y42	Z42	X43	Y43	Z43	X44	Y44	Z44	X45	Y45	Z45	X46	Y46	Z46	X47	Y47	Z47	X48	Y48	Z48	X49	Y49	Z49	X50	Y50	Z50	X51	Y51	Z51	X52	Y52	Z52	X53	Y53	Z53	X54	Y54	Z54	X55	Y55	Z55	X56	Y56	Z56	X57	Y57	Z57	X58	Y58	Z58	X59	Y59	Z59	X60	Y60	Z60	X61	Y61	Z61	

1197	5.98	-240.6958465576172	1538.791381835938	-1011.825012207031	-367.8834533691407	1457.527465820313	-1116.384887695313	-361.2012939453126	1458.933715820313	-964.6604614257815	-407.1478576660157	1338.251831054688	-1039.686401367188	-455.067596435547	1028.027099609375	-1047.6845703125	-277.8901672363282	1259.666870117188	-1043.703125	-341.0636291503907	1276.697387695313	-1222.908569335938	-358.0276489257813	1073.416015625	-1284.43505859375	-325.4389953613282	1045.381103515625	-1260.089233398438	-360.4714660644532	1005.121459960938	-1291.693725585938	-378.1820678710938	950.744812011719	-1292.136596679688	-408.7776184082032	939.9113769531252	-1216.31787109375	-286.2929382324219	722.0171508789064	-1257.763427734375	-325.9896850585938	714.7354736328126	-1309.905029296875	-259.9507751464844	639.8725585937501	-1274.414184570313	-333.6909179687501	1263.914428710938	-872.4109497070315	-340.7321472167969	1061.441528320313	-800.536560058594	-295.3968811035157	1044.603271484375	-807.2280883789065	-326.4156799316407	992.6446533203127	-800.478942871094	-307.7119140625001	935.2808837890627	-802.1320800781252	-319.0331420898438	921.969421386719	-881.3316040039065	-207.0203094482422	712.9212646484376	-818.0230102539065	-253.4250946044922	711.8574829101564	-770.2373657226565	-179.5506896972657	646.6552734375001	-785.729187011719	-299.0383605957032	850.6237792968752	-1147.115966796875	-308.0261840820313	864.4256591796877	-931.922302246094	-470.2160644531251	915.574645996094	-1043.50439453125	-474.6611938476564	885.5922851562502	-1072.205322265625	-480.9239807128907	885.814392089844	-1015.224975585938	-322.2483825683594	688.9797363281251	-1209.565063476563	-256.4802551269532	632.3317260742189	-1202.318237304688	-214.9239654541016	655.2069702148439	-1188.5361328125	-261.0663452148438	573.3825073242189	-1186.406127929688	-192.2815551757813	433.9032287597657	-1149.3193359375	-177.1705474853516	449.2095336914064	-1033.721069335938	-209.9134979248047	305.9179992675782	-1050.709594726563	-246.0390167236329	248.8365631103516	-1110.054565429688	-222.4737854003907	251.127914428711	-1068.062744140625	-275.4503173828126	199.2648925781251	-1028.074340820313	-376.7196350097657	107.1633453369141	-1072.291748046875	-350.7975463867188	121.5575714111328	-990.2188720703127	-441.1415100097657	96.62261962890628	-1024.688110351563	-239.0668182373047	50.82291412353517	-1002.961242675781	-233.6243743896485	48.79070281982423	-1041.856323242188	-258.3107910156251	43.69896697998048	-1091.952392578125	-229.000473022461	674.2879028320314	-860.1915283203127	-163.9972229003907	673.0597534179689	-868.414245605469	-148.7649230957032	701.3597412109376	-881.003356933594	-115.5381622314453	606.0011596679689	-883.1445922851565	-69.78003692626955	569.3919067382814	-889.129821777344	-54.89666748046876	580.5698242187501	-1004.593627929688	62.28052139282228	518.3598022460939	-908.3889770507815	82.94319152832033	415.0095214843751	-878.6119384765627	112.5892562866211	449.057586669922	-891.748474121094	156.1382293701172	430.3639526367189	-925.1063232421877	233.8519744873047	294.4143676757813	-888.9567871093752	230.5763397216797	319.1571044921876	-967.766784667969	222.3775177001954	231.7874908447266	-928.7378540039065	356.6051330566407	386.0852355957032	-965.462585449219	353.0909729003907	399.9744567871095	-918.0982055664065	353.2357177734376	369.9762573242188	-863.9869384765627	
1198	5.985	-240.8397216796876	1539.45068359375	-1011.585815429688	-367.9424438476563	1458.3525390625	-1116.158569335938	-361.3003540039063	1459.578125	-964.506042480469	-407.3189392089845	1338.944946289063	-1039.72021484375	-454.892791748047	1028.730224609375	-1047.883544921875	-277.9354858398438	1260.362548828125	-1043.712524414063	-340.8170166015626	1277.482543945313	-1222.771118164063	-358.3005676269532	1074.170654296875	-1284.497436523438	-326.0703430175782	1046.153198242188	-1260.09814453125	-360.5069580078126	1005.819763183594	-1291.51611328125	-378.9228515625001	951.678649902344	-1292.153564453125	-410.7241821289064	941.2969970703127	-1216.933715820313	-288.5011291503907	722.4009399414064	-1257.684692382813	-327.8543090820313	715.2981567382814	-1309.911987304688	-263.6587524414063	639.2939453125001	-1273.916137695313	-333.9974670410157	1264.455322265625	-872.3359375000002	-341.4928283691407	1062.065551757813	-800.403991699219	-296.2786560058594	1044.933227539063	-807.219909667969	-327.5907897949219	993.0986328125002	-800.4619140625002	-308.9688110351563	935.8325195312502	-802.063415527344	-320.0735473632813	922.6900024414065	-881.4965820312502	-209.6433563232422	712.8117675781251	-817.5395507812502	-256.2051391601563	712.1455688476564	-769.8682861328127	-182.8594055175782	646.2742919921876	-785.1921997070315	-298.5980224609376	851.207214355469	-1147.11181640625	-307.7346191406251	864.350036621094	-931.941345214844	-469.8854064941407	916.0669555664065	-1043.624267578125	-474.565155029297	886.158142089844	-1072.28173828125	-480.9085693359376	886.3230590820315	-1015.302185058594	-321.8409423828126	689.6366577148439	-1209.603515625	-257.7158508300782	633.2047729492189	-1202.472900390625	-215.5833435058594	655.0193481445314	-1188.138671875	-261.3918762207032	573.9365234375001	-1186.380249023438	-192.9658813476563	434.254119873047	-1149.427612304688	-177.3489074707032	449.3650817871095	-1033.718627929688	-210.1162567138672	306.1522521972657	-1050.740844726563	-246.3803100585938	248.9293212890626	-1110.099853515625	-222.5984954833985	251.3391723632813	-1068.14892578125	-275.5574035644532	199.2007598876954	-1028.244995117188	-376.6986389160157	107.1595535278321	-1072.2890625	-350.7185668945313	121.5592803955078	-990.2639160156252	-441.1224670410157	96.68486022949222	-1024.658203125	-239.1060028076172	50.78499221801759	-1002.973571777344	-233.6986541748047	48.82030868530275	-1041.874389648438	-258.3009033203126	43.71053695678712	-1091.9462890625	-228.6268310546876	674.9606933593751	-860.1706542968752	-163.7805328369141	673.7372436523439	-868.4360351562502	-148.4723358154297	702.0003662109376	-881.0927734375002	-115.3807067871094	606.6966552734376	-883.2774047851565	-69.52298736572267	570.0399169921876	-889.2263183593752	-54.57447052001955	581.2276000976564	-1004.701782226563	62.56432723999025	519.0361938476564	-908.514831542969	83.08150482177736	415.5791015625001	-878.755554199219	112.766098022461	449.6123046875001	-891.8094482421877	156.4214630126953	431.0186157226564	-925.3117675781252	234.0034637451172	294.9772949218751	-889.1275024414065	230.6946868896485	320.0982971191407	-970.0686035156252	222.6847076416016	232.4542999267579	-929.009948730469	356.7131042480469	386.8202209472657	-965.7527465820315	353.0408630371094	399.9136657714845	-918.0528564453127	353.4467163085938	370.6667480468751	-864.075622558594	
1199	5.99	-241.0277252197266	1540.109741210938	-1011.409851074219	-367.9711608886719	1458.9833984375	-1116.211547851563	-361.5532836914063	1460.2587890625	-964.3557739257815	-407.396942138672	1339.65478515625	-1039.809326171875	-454.7141418457032	1029.308349609375	-1048.015380859375	-278.0194091796876	1261.036499023438	-1043.64599609375	-340.7424621582032	1278.252319335938	-1222.781494140625	-358.7221374511719	1074.9638671875	-1284.564208984375	-326.5971069335938	1046.875854492188	-1259.994873046875	-360.9786376953126	1006.550659179688	-1291.520141601563	-379.9253845214844	952.7119140625002	-1292.348266601563	-413.4331054687501	941.6981201171877	-1218.087768554688	-290.3805236816407	722.5330810546876	-1257.389892578125	-329.9143676757813	715.9629516601564	-1309.867309570313	-266.9208984375001	639.2075805664064	-1273.726806640625	-334.1350708007813	1265.105346679688	-872.3051757812502	-342.3376159667969	1062.602172851563	-800.3521118164065	-297.0450134277344	1045.4482421875	-807.1809692382815	-328.5759887695313	993.6423950195315	-800.362731933594	-310.3153076171876	936.4145507812502	-802.0604248046877	-320.9903564453126	923.4898071289065	-881.6995239257815	-212.3191528320313	712.7736206054689	-817.031677246094	-258.9225463867188	712.4020385742189	-769.4465332031252	-186.1031951904297	645.9073486328126	-784.7187500000002	-298.3175354003907	851.8753662109377	-1147.107299804688	-307.9567565917969	865.7817993164065	-931.8525390625002	-469.7661437988282	916.6909790039065	-1043.758544921875	-474.4733276367189	886.7769165039065	-1072.47412109375	-481.6971130371095	886.9772949218752	-1015.342834472656	-321.6836853027344	690.1875000000001	-1209.513549804688	-257.7158508300782	633.5608520507814	-1202.530883789063	-215.4245147705079	655.1938476562501	-1188.221557617188	-260.0362243652344	574.4822998046876	-1187.095947265625	-193.327133178711	434.4873962402345	-1149.470581054688	-177.4432067871094	449.5505981445314	-1033.77734375	-210.2490386962891	306.2629089355469	-1050.8505859375	-246.5597534179688	249.0932159423829	-1110.184936523438	-222.8247222900391	251.4290313720704	-1068.302734375	-275.5574645996094	199.3861999511719	-1028.375122070313	-376.7166137695313	107.1001510620117	-1072.305297851563	-350.7364196777344	121.5406799316407	-990.3255615234377	-441.1463623046876	96.633415222168	-1024.68359375	-239.0955810546876	50.8260841369629	-1002.971618652344	-233.6372222900391	48.79436492919923	-1041.877319335938	-258.3549194335938	43.67798614501954	-1092.018188476563	-228.3343200683594	675.5490112304689	-860.1268310546877	-163.6539916992188	674.1784057617189	-868.743103027344	-148.1918640136719	702.7362060546876	-881.124206542969	-115.129264831543	607.4743652343751	-883.233581542969	-68.88975524902345	570.9660644531251	-889.000671386719	-54.39595413208009	582.0011596679689	-1004.808410644531	62.89509582519533	519.6017456054689	-908.591491699219	83.3331756591797	416.2424621582032	-878.8476562500002	113.0081100463867	450.1936340332032	-891.9302368164065	156.5698699951172	431.645721435547	-925.4028930664065	234.2262268066407	295.5666503906251	-889.3107910156252	230.6837615966797	320.8063354492188	-970.2221679687502	222.8238372802735	233.0750122070313	-929.3438110351565	356.9676208496094	387.395965576172	-965.9812011718752	353.3971252441407	401.1909484863282	-918.4050292968752	353.7179870605469	371.3280029296876	-864.130065917969	
1200	5.995	-241.2233123779297	1540.832885742188	-1011.123352050781	-367.7719421386719	1460.43017578125	-1116.305541992188	-361.7660522460938	1460.849609375	-964.250671386719	-407.537078857422	1340.169067382813	-1039.8154296875	-454.5634155273439	1029.9111328125	-1048.070434570313	-278.0258789062501	1261.697021484375	-1043.540893554688	-340.8273010253907	1279.066284179688	-1222.94189453125	-359.0977172851563	1075.79931640625	-1284.710815429688	-326.8096313476563	1047.575927734375	-1259.81201171875	-361.5819702148438	1007.463195800781	-1291.583618164063	-380.2157897949219	953.424499511719	-1292.232299804688	-412.4680175781251	943.2561645507815	-1217.114990234375	-292.6432800292969	722.9737548828126	-1257.367797851563	-332.4139709472657	716.5313720703126	-1309.426391601563	-269.2749938964844	639.6371459960939	-1273.447387695313	-334.2943115234376	1265.740234375	-872.3013916015627	-343.2192687988282	1063.191650390625	-800.380554199219	-297.8334655761719	1045.9208984375	-807.0664062500002	-329.5443420410157	994.213073730469	-800.2290649414065	-311.5809631347657	936.939392089844	-802.0311279296877	-322.7826538085938	923.817077636719	-881.3308105468752	-214.7018280029297	712.7976074218751	-816.5418701171877	-261.6481323242188	712.6604614257814	-769.0625000000002	-189.1829681396485	645.6958007812501	-784.2363891601565	-298.0302734375001	852.5388183593752	-1147.097778320313	-307.6177673339844	866.6604614257815	-931.9818115234377	-469.5621948242189	917.426940917969	-1043.848510742188	-474.2555236816407	887.3406372070315	-1072.51611328125	-481.1168518066407	887.5308837890627	-1015.411987304688	-320.4625549316407	690.6334838867189	-1208.96142578125	-257.8334045410157	634.0703735351564	-1202.556640625	-215.3652496337891	655.5269775390626	-1188.278564453125	-260.1853637695313	574.8990478515626	-1187.10888671875	-193.7279205322266	434.7924804687501	-1149.5546875	-177.5784912109375	449.6836547851564	-1033.840087890625	-210.3486938476563	306.4366149902344	-1050.9912109375	-246.9665832519532	249.1998901367188	-1110.35546875	-222.9910278320313	251.4974822998047	-1068.52099609375	-275.6154479980469	199.4724578857422	-1028.55078125	-376.7468566894532	107.096923828125	-1072.392944335938	-350.7008056640626	121.5022888183594	-990.4060058593752	-441.1121215820314	96.63832092285159	-1024.6865234375	-239.1138763427735	50.7879981994629	-1003.067199707031	-233.6775360107422	48.74338150024415	-1041.930908203125	-258.3063659667969	43.69330215454102	-1092.018920898438	-227.7636871337891	676.0717773437501	-860.1668090820315	-163.2335815429688	675.1358032226564	-868.542907714844	-147.9336853027344	703.4354248046876	-881.156433105469	-114.8821640014649	608.1339721679689	-883.2077636718752	-68.70354461669923	571.6973266601564	-889.1599121093752	-54.39896774291994	582.8385620117189	-1004.928588867188	63.1360206604004	520.2028198242189	-908.554870605469	83.42396545410158	416.821502685547	-878.955017089844	113.2469482421875	450.8268432617189	-892.1090087890627	156.7677307128907	432.3196716308595	-925.5637207031252	234.3276062011719	296.1242980957032	-889.5255126953127	230.4891357421876	321.4966735839844	-970.3999633789065	223.0750579833985	233.6936492919922	-929.452819824219	357.1408081054688	387.968719482422	-966.002380371094	353.4984130859376	401.473114013672	-918.4292602539065	353.8228454589844	371.7632141113282	-864.2436523437502	
